<svg width="64" height="65" viewBox="0 0 24 24" fill="none" xmlns="http://www.w3.org/2000/svg">
<path d="M23.2069 7.79817C23.2219 7.79817 23.235 7.80004 23.25 7.80004V7.15129H22.6031C21.795 7.15129 21.1219 6.57754 20.9681 5.81442C20.9493 5.72086 20.8987 5.63669 20.8249 5.5762C20.751 5.5157 20.6586 5.48262 20.5631 5.48254H3.43687C3.24 5.48254 3.07125 5.62129 3.03188 5.81442C2.95549 6.19171 2.75095 6.53096 2.45294 6.77463C2.15494 7.01829 1.78182 7.15137 1.39687 7.15129H0.75V7.80004C0.765 7.79817 0.778125 7.79817 0.793125 7.79817C0.930872 7.79817 1.06298 7.85289 1.16038 7.95029C1.25778 8.04769 1.3125 8.1798 1.3125 8.31754C1.3125 8.45529 1.25778 8.5874 1.16038 8.6848C1.06298 8.7822 0.930872 8.83692 0.793125 8.83692C0.778125 8.83692 0.765 8.83504 0.75 8.83504V9.27192C0.765 9.27004 0.778125 9.27004 0.793125 9.27004C0.930872 9.27004 1.06298 9.32476 1.16038 9.42217C1.25778 9.51957 1.3125 9.65167 1.3125 9.78942C1.3125 9.92717 1.25778 10.0593 1.16038 10.1567C1.06298 10.2541 0.930872 10.3088 0.793125 10.3088C0.778125 10.3088 0.765 10.3069 0.75 10.3069V10.7438C0.765 10.7419 0.778125 10.7419 0.793125 10.7419C1.08 10.7438 1.3125 10.9763 1.3125 11.2632C1.3125 11.3314 1.29907 11.3989 1.27296 11.4619C1.24686 11.5249 1.20861 11.5822 1.16038 11.6304C1.11215 11.6787 1.05489 11.7169 0.991881 11.743C0.928868 11.7691 0.86133 11.7825 0.793125 11.7825C0.778125 11.7825 0.765 11.7807 0.75 11.7807V12.2175C0.765 12.2157 0.778125 12.2157 0.793125 12.2157C1.08 12.2157 1.3125 12.45 1.3125 12.7369C1.3125 13.0238 1.08 13.2563 0.793125 13.2563C0.778125 13.2563 0.765 13.2544 0.75 13.2544V13.6913C0.765 13.6894 0.778125 13.6894 0.793125 13.6894C0.930872 13.6894 1.06298 13.7441 1.16038 13.8415C1.25778 13.9389 1.3125 14.071 1.3125 14.2088C1.3125 14.3465 1.25778 14.4786 1.16038 14.576C1.06298 14.6734 0.930872 14.7282 0.793125 14.7282C0.778125 14.7282 0.765 14.7263 0.75 14.7263V15.1632C0.765 15.1613 0.778125 15.1613 0.793125 15.1613C0.930872 15.1613 1.06298 15.216 1.16038 15.3134C1.25778 15.4108 1.3125 15.5429 1.3125 15.6807C1.3125 15.8184 1.25778 15.9505 1.16038 16.0479C1.06298 16.1453 0.930872 16.2 0.793125 16.2C0.778125 16.2 0.765 16.1982 0.75 16.1982V16.8469H1.39687C2.205 16.8469 2.87813 17.4207 3.03188 18.1838C3.0507 18.2774 3.10132 18.3615 3.17514 18.422C3.24896 18.4825 3.34144 18.5156 3.43687 18.5157H20.5631C20.76 18.5157 20.9288 18.3769 20.9681 18.1838C21.0445 17.8065 21.2491 17.4673 21.5471 17.2236C21.8451 16.9799 22.2182 16.8468 22.6031 16.8469H23.25V16.2C23.235 16.2019 23.2219 16.2019 23.2069 16.2019C23.0691 16.2019 22.937 16.1472 22.8396 16.0498C22.7422 15.9524 22.6875 15.8203 22.6875 15.6825C22.6875 15.5448 22.7422 15.4127 22.8396 15.3153C22.937 15.2179 23.0691 15.1632 23.2069 15.1632C23.2219 15.1632 23.235 15.165 23.25 15.165V14.7282C23.235 14.73 23.2219 14.73 23.2069 14.73C23.0691 14.73 22.937 14.6753 22.8396 14.5779C22.7422 14.4805 22.6875 14.3484 22.6875 14.2107C22.6875 14.0729 22.7422 13.9408 22.8396 13.8434C22.937 13.746 23.0691 13.6913 23.2069 13.6913C23.2219 13.6913 23.235 13.6932 23.25 13.6932V13.2563C23.235 13.2582 23.2219 13.2582 23.2069 13.2582C23.0691 13.2582 22.937 13.2035 22.8396 13.106C22.7422 13.0086 22.6875 12.8765 22.6875 12.7388C22.6875 12.601 22.7422 12.4689 22.8396 12.3715C22.937 12.2741 23.0691 12.2194 23.2069 12.2194C23.2219 12.2194 23.235 12.2213 23.25 12.2213V11.7844C23.235 11.7863 23.2219 11.7863 23.2069 11.7863C23.0691 11.7863 22.937 11.7316 22.8396 11.6342C22.7422 11.5368 22.6875 11.4047 22.6875 11.2669C22.6875 11.1292 22.7422 10.9971 22.8396 10.8997C22.937 10.8023 23.0691 10.7475 23.2069 10.7475C23.2219 10.7475 23.235 10.7494 23.25 10.7494V10.3125C23.235 10.3144 23.2219 10.3144 23.2069 10.3144C23.0691 10.3144 22.937 10.2597 22.8396 10.1623C22.7422 10.0649 22.6875 9.93279 22.6875 9.79504C22.6875 9.6573 22.7422 9.52519 22.8396 9.42779C22.937 9.33039 23.0691 9.27567 23.2069 9.27567C23.2219 9.27567 23.235 9.27754 23.25 9.27754V8.84067C23.235 8.84254 23.2219 8.84254 23.2069 8.84254C23.0691 8.84254 22.937 8.78782 22.8396 8.69042C22.7422 8.59302 22.6875 8.46092 22.6875 8.32317C22.6875 8.03067 22.92 7.79817 23.2069 7.79817V7.79817Z" fill="#ED6C66"/>
<path d="M19.5749 16.7756H4.42492C3.89617 16.7756 3.4668 16.3462 3.4668 15.8175V8.18249C3.4668 7.65374 3.89617 7.22437 4.42492 7.22437H19.5749C20.1037 7.22437 20.533 7.65374 20.533 8.18249V15.8175C20.533 16.3462 20.1037 16.7756 19.5749 16.7756Z" stroke="#BB303D" stroke-width="3" stroke-miterlimit="10"/>
<path d="M6.72559 7.22437H17.2762V16.7775H6.72559V7.22437Z" stroke="#BB303D" stroke-width="2" stroke-miterlimit="10"/>
<g opacity="0.8">
<path opacity="0.8" d="M8.93799 10.3687H15.0617" stroke="#4E342E" stroke-width="9" stroke-miterlimit="10" stroke-linecap="round"/>
<path opacity="0.8" d="M9.83057 13.6311H14.1693" stroke="#4E342E" stroke-width="9" stroke-miterlimit="10" stroke-linecap="round"/>
</g>
<path opacity="0.5" d="M18.8491 8.8501V15.1501" stroke="#4E342E" stroke-width="6" stroke-miterlimit="10"/>
<path opacity="0.5" d="M5.15039 8.8501V15.1501" stroke="#4E342E" stroke-width="6" stroke-miterlimit="10"/>
</svg>
