<svg width="30" height="30" viewBox="0 0 30 30" fill="none" xmlns="http://www.w3.org/2000/svg">
<path fill-rule="evenodd" clip-rule="evenodd" d="M4.99988 6.25C4.66836 6.25 4.35041 6.3817 4.11599 6.61612C3.88157 6.85054 3.74988 7.16848 3.74988 7.5V22.5C3.74988 22.8315 3.88157 23.1495 4.11599 23.3839C4.35041 23.6183 4.66836 23.75 4.99988 23.75H24.9999C25.3314 23.75 25.6493 23.6183 25.8838 23.3839C26.1182 23.1495 26.2499 22.8315 26.2499 22.5V7.5C26.2499 7.16848 26.1182 6.85054 25.8838 6.61612C25.6493 6.3817 25.3314 6.25 24.9999 6.25H4.99988ZM2.34823 4.84835C3.05149 4.14509 4.00532 3.75 4.99988 3.75H24.9999C25.9944 3.75 26.9483 4.14509 27.6515 4.84835C28.3548 5.55161 28.7499 6.50544 28.7499 7.5V22.5C28.7499 23.4946 28.3548 24.4484 27.6515 25.1517C26.9483 25.8549 25.9944 26.25 24.9999 26.25H4.99988C4.00532 26.25 3.05149 25.8549 2.34823 25.1517C1.64497 24.4484 1.24988 23.4946 1.24988 22.5V7.5C1.24988 6.50544 1.64497 5.55161 2.34823 4.84835Z" fill="white"/>
<path fill-rule="evenodd" clip-rule="evenodd" d="M1.24988 9.99988C1.24988 9.30952 1.80952 8.74988 2.49988 8.74988H27.4999C28.1902 8.74988 28.7499 9.30952 28.7499 9.99988C28.7499 10.6902 28.1902 11.2499 27.4999 11.2499H2.49988C1.80952 11.2499 1.24988 10.6902 1.24988 9.99988Z" fill="white"/>
<path fill-rule="evenodd" clip-rule="evenodd" d="M1.24988 15.0001C1.24988 14.3098 1.80952 13.7501 2.49988 13.7501H11.2499C11.9402 13.7501 12.4999 14.3098 12.4999 15.0001C12.4999 15.4251 12.6377 16.0904 13.0143 16.6135C13.345 17.0729 13.9073 17.5001 14.9999 17.5001C16.0925 17.5001 16.6547 17.0729 16.9855 16.6135C17.3621 16.0904 17.4999 15.4251 17.4999 15.0001C17.4999 14.3098 18.0595 13.7501 18.7499 13.7501H27.4999C28.1902 13.7501 28.7499 14.3098 28.7499 15.0001C28.7499 15.6905 28.1902 16.2501 27.4999 16.2501H19.8425C19.6966 16.8458 19.437 17.4872 19.0143 18.0742C18.22 19.1774 16.9073 20.0001 14.9999 20.0001C13.0925 20.0001 11.7797 19.1774 10.9855 18.0742C10.5628 17.4872 10.3032 16.8458 10.1572 16.2501H2.49988C1.80952 16.2501 1.24988 15.6905 1.24988 15.0001Z" fill="white"/>
</svg>
