<svg width="29" height="29" viewBox="0 0 29 29" fill="none" xmlns="http://www.w3.org/2000/svg">
<g clip-path="url(#clip0_75:1069)">
<path d="M24.2032 5.74068C22.4182 4.93568 20.5048 4.34068 18.504 4.00234C18.4862 3.99892 18.4677 4.00113 18.4512 4.00865C18.4347 4.01618 18.421 4.02865 18.4118 4.04434C18.1668 4.47484 17.8938 5.03601 17.7025 5.47934C15.5805 5.16229 13.4231 5.16229 11.301 5.47934C11.0879 4.98801 10.8476 4.50894 10.5812 4.04434C10.5721 4.02846 10.5585 4.0157 10.542 4.00778C10.5256 3.99986 10.5071 3.99715 10.489 4.00001C8.48935 4.33834 6.57601 4.93334 4.78984 5.73951C4.77448 5.74596 4.76145 5.75695 4.75251 5.77101C1.12184 11.1085 0.126678 16.3142 0.615511 21.4545C0.616872 21.4671 0.62078 21.4793 0.626997 21.4903C0.633215 21.5013 0.641612 21.511 0.651678 21.5187C2.7708 23.0615 5.1344 24.2368 7.64351 24.9953C7.661 25.0007 7.67971 25.0007 7.69719 24.9953C7.71468 24.9899 7.73012 24.9793 7.74151 24.965C8.28051 24.2417 8.76118 23.4775 9.17184 22.6748C9.19634 22.6282 9.17301 22.5722 9.12401 22.5535C8.37035 22.2697 7.64011 21.9272 6.94001 21.5292C6.92743 21.522 6.91683 21.5118 6.90916 21.4995C6.90149 21.4872 6.89699 21.4732 6.89607 21.4588C6.89514 21.4443 6.89782 21.4299 6.90386 21.4167C6.9099 21.4035 6.91912 21.3921 6.93068 21.3833C7.07768 21.2748 7.22468 21.1617 7.36468 21.0485C7.37728 21.0383 7.39246 21.0319 7.40853 21.0298C7.42459 21.0277 7.44092 21.0302 7.45568 21.0368C12.0372 23.0948 16.999 23.0948 21.5268 21.0368C21.5416 21.0298 21.5581 21.027 21.5744 21.0289C21.5907 21.0307 21.6062 21.0371 21.619 21.0473C21.759 21.1617 21.9048 21.2748 22.053 21.3833C22.0647 21.3919 22.0741 21.4032 22.0803 21.4162C22.0865 21.4293 22.0894 21.4437 22.0887 21.4581C22.088 21.4726 22.0838 21.4866 22.0763 21.499C22.0689 21.5114 22.0584 21.5218 22.046 21.5292C21.3483 21.9305 20.6227 22.27 19.8608 22.5523C19.8491 22.5566 19.8385 22.5633 19.8296 22.572C19.8207 22.5807 19.8137 22.5912 19.8092 22.6028C19.8047 22.6144 19.8027 22.6268 19.8033 22.6392C19.804 22.6516 19.8073 22.6638 19.813 22.6748C20.233 23.4763 20.7137 24.2393 21.2422 24.9638C21.2532 24.9787 21.2685 24.9898 21.286 24.9957C21.3036 25.0015 21.3225 25.0018 21.3402 24.9965C23.8536 24.2401 26.221 23.0643 28.3425 21.5187C28.3529 21.5114 28.3615 21.5021 28.368 21.4912C28.3744 21.4803 28.3785 21.4682 28.3798 21.4557C28.9632 15.5127 27.4022 10.349 24.2393 5.77334C24.2316 5.75847 24.2188 5.74688 24.2032 5.74068ZM9.85668 18.3243C8.47768 18.3243 7.34018 17.0772 7.34018 15.5477C7.34018 14.017 8.45551 12.771 9.85668 12.771C11.2683 12.771 12.3953 14.0275 12.3732 15.5477C12.3732 17.0783 11.2578 18.3243 9.85668 18.3243ZM19.1608 18.3243C17.7807 18.3243 16.6443 17.0772 16.6443 15.5477C16.6443 14.017 17.7585 12.771 19.1608 12.771C20.5725 12.771 21.6995 14.0275 21.6773 15.5477C21.6773 17.0783 20.5737 18.3243 19.1608 18.3243Z" fill="#9289FF"/>
</g>
<defs>
<clipPath id="clip0_75:1069">
<rect width="28" height="28" fill="white" transform="translate(0.5 0.5)"/>
</clipPath>
</defs>
</svg>
