<svg width="64" height="65" viewBox="0 0 24 24" fill="none" xmlns="http://www.w3.org/2000/svg">
<path d="M19.3332 7.37326C19.3332 11.6659 15.9998 12.3326 15.9998 16.3333C15.9998 18.3986 13.9178 18.5726 12.3332 18.5726C10.9645 18.5726 7.9425 18.0533 7.9425 16.3319C7.9425 12.3333 4.6665 11.6666 4.6665 7.37326C4.6665 3.3526 8.18984 0.0932617 12.0552 0.0932617C15.9218 0.0932617 19.3332 3.3526 19.3332 7.37326Z" fill="#FFD983"/>
<path d="M14.7782 21.6666C14.7782 22.2186 13.2888 23.3333 12.0002 23.3333C10.7115 23.3333 9.22217 22.2186 9.22217 21.6666C9.22217 21.1146 10.7108 21.3333 12.0002 21.3333C13.2888 21.3333 14.7782 21.1146 14.7782 21.6666Z" fill="#CCD6DD"/>
<path d="M15.1382 6.86197C15.0764 6.80001 15.0029 6.75085 14.922 6.71731C14.8411 6.68377 14.7544 6.6665 14.6669 6.6665C14.5793 6.6665 14.4926 6.68377 14.4118 6.71731C14.3309 6.75085 14.2574 6.80001 14.1956 6.86197L12.0002 9.05731L9.80489 6.86197C9.743 6.80008 9.66951 6.75098 9.58864 6.71748C9.50777 6.68398 9.42109 6.66674 9.33356 6.66674C9.24602 6.66674 9.15935 6.68398 9.07847 6.71748C8.9976 6.75098 8.92412 6.80008 8.86223 6.86197C8.80033 6.92387 8.75123 6.99735 8.71773 7.07822C8.68423 7.15909 8.66699 7.24577 8.66699 7.3333C8.66699 7.42084 8.68423 7.50752 8.71773 7.58839C8.75123 7.66926 8.80033 7.74274 8.86223 7.80464L11.3336 10.276V17.3333C11.3336 17.5101 11.4038 17.6797 11.5288 17.8047C11.6538 17.9297 11.8234 18 12.0002 18C12.177 18 12.3466 17.9297 12.4716 17.8047C12.5967 17.6797 12.6669 17.5101 12.6669 17.3333V10.276L15.1382 7.80464C15.2002 7.74278 15.2493 7.66931 15.2829 7.58843C15.3164 7.50756 15.3337 7.42086 15.3337 7.3333C15.3337 7.24575 15.3164 7.15905 15.2829 7.07818C15.2493 6.9973 15.2002 6.92383 15.1382 6.86197V6.86197Z" fill="#FFCC4D"/>
<path d="M16 20.6667C16 21.0204 15.8595 21.3595 15.6095 21.6096C15.3594 21.8596 15.0203 22.0001 14.6667 22.0001H9.33333C8.97971 22.0001 8.64057 21.8596 8.39052 21.6096C8.14048 21.3595 8 21.0204 8 20.6667V16.6667H16V20.6667Z" fill="#99AAB5"/>
<path d="M7.99916 21.3333C7.83222 21.3326 7.67158 21.2694 7.54901 21.1561C7.42644 21.0427 7.35085 20.8875 7.3372 20.7211C7.32354 20.5547 7.37281 20.3893 7.47526 20.2575C7.57771 20.1257 7.72588 20.0371 7.89049 20.0093L15.8905 18.6759C15.9769 18.6611 16.0653 18.6635 16.1508 18.683C16.2362 18.7026 16.3169 18.7389 16.3882 18.7899C16.4595 18.8408 16.52 18.9055 16.5662 18.98C16.6123 19.0545 16.6433 19.1374 16.6572 19.2239C16.6716 19.3102 16.6688 19.3986 16.6491 19.4838C16.6293 19.5691 16.593 19.6496 16.5421 19.7208C16.4912 19.792 16.4267 19.8525 16.3525 19.8988C16.2782 19.9451 16.1955 19.9763 16.1092 19.9906L8.10916 21.3239C8.07284 21.3303 8.03603 21.3334 7.99916 21.3333V21.3333ZM7.99916 18.6666C7.83222 18.666 7.67158 18.6027 7.54901 18.4894C7.42644 18.376 7.35085 18.2208 7.3372 18.0545C7.32354 17.8881 7.37281 17.7226 7.47526 17.5908C7.57771 17.459 7.72588 17.3704 7.89049 17.3426L15.8905 16.0093C15.9769 15.9945 16.0653 15.997 16.1507 16.0166C16.2361 16.0362 16.3168 16.0725 16.3881 16.1234C16.4593 16.1744 16.5198 16.239 16.566 16.3134C16.6122 16.3879 16.6432 16.4708 16.6572 16.5573C16.6716 16.6436 16.6688 16.7319 16.6491 16.8172C16.6293 16.9024 16.593 16.983 16.5421 17.0542C16.4912 17.1254 16.4267 17.1858 16.3525 17.2321C16.2782 17.2784 16.1955 17.3096 16.1092 17.3239L8.10916 18.6573C8.07284 18.6636 8.03603 18.6668 7.99916 18.6666V18.6666Z" fill="#CCD6DD"/>
</svg>
