<svg width="120" height="120" viewBox="0 0 120 120" fill="none" xmlns="http://www.w3.org/2000/svg">
<path d="M52.8999 67.1592L62.8991 63.1358L67.0999 52.8408L57.1007 56.8642L52.8999 67.1592Z" fill="#7879F1"/>
<path d="M60 0.833313C48.2979 0.833313 36.8586 4.30338 27.1287 10.8047C17.3988 17.306 9.81526 26.5466 5.33707 37.3579C0.858888 48.1692 -0.312809 60.0656 1.97015 71.5428C4.25311 83.02 9.88819 93.5625 18.1628 101.837C26.4374 110.112 36.9799 115.747 48.4571 118.03C59.9343 120.313 71.8308 119.141 82.6421 114.663C93.4534 110.185 102.694 102.601 109.195 92.8712C115.697 83.1413 119.167 71.702 119.167 60C119.167 52.2301 117.636 44.5363 114.663 37.3579C111.689 30.1794 107.331 23.657 101.837 18.1628C96.343 12.6687 89.8205 8.31051 82.6421 5.33711C75.4636 2.3637 67.7698 0.833313 60 0.833313ZM83.2525 44.735L72.8983 69.94C72.6007 70.6723 72.1595 71.3375 71.6006 71.8964C71.0416 72.4553 70.3764 72.8966 69.6441 73.1941L44.7349 83.2525C43.9459 83.5673 43.0984 83.7086 42.2499 83.6666C41.4629 83.6557 40.686 83.4878 39.9647 83.1729C39.2434 82.8579 38.5921 82.4022 38.0491 81.8325H37.7533C37.0633 81.0314 36.6006 80.06 36.4133 79.0195C36.226 77.9789 36.321 76.9072 36.6883 75.9158L47.0424 50.7108C47.34 49.9785 47.7813 49.3133 48.3402 48.7544C48.8991 48.1955 49.5643 47.7542 50.2966 47.4566L75.2058 37.3983C76.3135 36.9613 77.5273 36.8687 78.6884 37.1326C79.8496 37.3965 80.9041 38.0046 81.7141 38.8775C82.4744 39.6247 83.0187 40.5634 83.2895 41.5945C83.5603 42.6255 83.5475 43.7106 83.2525 44.735Z" fill="#7879F1"/>
</svg>
