<svg width="64" height="52" viewBox="0 0 64 52" fill="none" xmlns="http://www.w3.org/2000/svg">
<path d="M23.0399 11.3317C22.7705 11.1493 22.4594 11.0118 22.1244 10.9272C21.7895 10.8426 21.4373 10.8126 21.088 10.8387C20.7387 10.8649 20.3993 10.9468 20.089 11.0797C19.7787 11.2126 19.5038 11.394 19.2799 11.6134L5.9466 24.6134C5.55438 25.0011 5.33997 25.4874 5.33997 25.9892C5.33997 26.4911 5.55438 26.9774 5.9466 27.3651L18.8266 40.3651C19.0776 40.6164 19.3947 40.8189 19.7546 40.9577C20.1146 41.0964 20.5082 41.1678 20.9066 41.1667C21.4112 41.1681 21.906 41.0532 22.3334 40.8352C22.7608 40.6172 23.1033 40.3052 23.3211 39.9353C23.539 39.5655 23.6232 39.153 23.5639 38.7458C23.5047 38.3386 23.3045 37.9535 22.9866 37.6351L11.4399 26.0001L23.3866 14.3867C23.6111 14.1678 23.7803 13.915 23.8844 13.6429C23.9886 13.3707 24.0256 13.0846 23.9934 12.8008C23.9612 12.517 23.8604 12.2412 23.6968 11.9891C23.5332 11.737 23.31 11.5136 23.0399 11.3317V11.3317ZM58.0799 24.6351L45.3333 11.6351C45.1132 11.4125 44.8412 11.2274 44.5328 11.0906C44.2245 10.9537 43.8858 10.8677 43.5364 10.8375C43.187 10.8073 42.8337 10.8335 42.4968 10.9146C42.1599 10.9957 41.846 11.1301 41.5733 11.3101C41.2993 11.4889 41.0716 11.7099 40.9031 11.9604C40.7347 12.211 40.6288 12.4861 40.5916 12.77C40.5545 13.0539 40.5867 13.341 40.6865 13.6147C40.7863 13.8884 40.9518 14.1434 41.1733 14.3651L52.5599 26.0001L40.6133 37.6351C40.3887 37.854 40.2196 38.1068 40.1154 38.3789C40.0113 38.6511 39.9743 38.9372 40.0065 39.221C40.0387 39.5048 40.1395 39.7806 40.3031 40.0327C40.4667 40.2848 40.6899 40.5082 40.9599 40.6901C41.4434 41.0053 42.0468 41.1738 42.6666 41.1667C43.0584 41.1672 43.4455 41.0976 43.8003 40.9628C44.1552 40.828 44.4692 40.6313 44.7199 40.3867L58.0533 27.3867C58.4493 27.0016 58.6684 26.5166 58.6733 26.0148C58.6781 25.5129 58.4684 25.0253 58.0799 24.6351V24.6351Z" fill="#6B5FFF"/>
</svg>
