<svg width="64" height="65" viewBox="0 0 64 65" fill="none" xmlns="http://www.w3.org/2000/svg">
<path d="M48 24.5H40V15.62C39.993 13.7338 39.2406 11.9269 37.9068 10.5932C36.5731 9.25942 34.7662 8.50702 32.88 8.5H15.12C13.2338 8.50702 11.4269 9.25942 10.0932 10.5932C8.75942 11.9269 8.00702 13.7338 8 15.62V33.38C8.00702 35.2662 8.75942 37.0731 10.0932 38.4068C11.4269 39.7406 13.2338 40.493 15.12 40.5H24V48.5C24 50.6217 24.8429 52.6566 26.3431 54.1569C27.8434 55.6571 29.8783 56.5 32 56.5H48C50.1217 56.5 52.1566 55.6571 53.6569 54.1569C55.1571 52.6566 56 50.6217 56 48.5V32.5C56 30.3783 55.1571 28.3434 53.6569 26.8431C52.1566 25.3429 50.1217 24.5 48 24.5ZM24 32.5V35.1667H15.12C14.6461 35.1667 14.1917 34.9784 13.8566 34.6434C13.5216 34.3083 13.3333 33.8539 13.3333 33.38V15.62C13.3333 15.1461 13.5216 14.6917 13.8566 14.3566C14.1917 14.0216 14.6461 13.8333 15.12 13.8333H32.88C33.3539 13.8333 33.8083 14.0216 34.1434 14.3566C34.4784 14.6917 34.6667 15.1461 34.6667 15.62V24.5H32C29.8783 24.5 27.8434 25.3429 26.3431 26.8431C24.8429 28.3434 24 30.3783 24 32.5Z" fill="#6B5FFF"/>
</svg>
