<svg width="29" height="29" viewBox="0 0 29 29" fill="none" xmlns="http://www.w3.org/2000/svg">
<path d="M9.92665 23.8333C11.6518 23.8911 13.371 23.6024 14.9827 22.9843C16.5944 22.3663 18.0658 21.4315 19.31 20.2351C20.5543 19.0387 21.5461 17.6051 22.2268 16.0189C22.9075 14.4327 23.2634 12.7261 23.2733 11C24.0639 10.0216 24.651 8.89513 25 7.68667C25.026 7.59119 25.0239 7.49021 24.9939 7.3959C24.9639 7.30159 24.9073 7.21797 24.8309 7.15509C24.7544 7.09222 24.6615 7.05278 24.5631 7.04153C24.4648 7.03028 24.3653 7.04769 24.2767 7.09167C23.863 7.29076 23.3974 7.35507 22.9453 7.27554C22.4932 7.19601 22.0775 6.97664 21.7567 6.64833C21.3471 6.19984 20.8517 5.83812 20.2998 5.5846C19.7479 5.33108 19.1507 5.19092 18.5436 5.17242C17.9365 5.15393 17.3319 5.25747 16.7656 5.47693C16.1993 5.69638 15.6828 6.02727 15.2467 6.45C14.6495 7.02827 14.2122 7.75117 13.9771 8.54845C13.742 9.34574 13.7172 10.1903 13.905 11C9.99665 11.2333 7.31332 9.37833 5.16665 6.835C5.10216 6.76197 5.0178 6.7093 4.92387 6.68341C4.82994 6.65753 4.73051 6.65956 4.63772 6.68926C4.54492 6.71895 4.46278 6.77503 4.40133 6.85063C4.33987 6.92623 4.30176 7.0181 4.29165 7.115C3.8827 9.38349 4.1777 11.7228 5.13704 13.8187C6.09638 15.9147 7.67411 17.6669 9.65832 18.84C8.3279 20.3658 6.45956 21.3188 4.44332 21.5C4.3353 21.5179 4.23559 21.5692 4.15813 21.6465C4.08068 21.7239 4.02936 21.8236 4.01136 21.9316C3.99335 22.0396 4.00957 22.1506 4.05774 22.2489C4.10591 22.3472 4.18362 22.428 4.27999 22.48C6.03409 23.3566 7.96576 23.8196 9.92665 23.8333Z" fill="#B4DFFF"/>
</svg>
