<svg width="64" height="64" viewBox="0 0 64 64" fill="none" xmlns="http://www.w3.org/2000/svg">
<path d="M48 8H16C13.8783 8 11.8434 8.84285 10.3431 10.3431C8.84285 11.8434 8 13.8783 8 16V48C8 50.1217 8.84285 52.1566 10.3431 53.6569C11.8434 55.1571 13.8783 56 16 56H48C50.1217 56 52.1566 55.1571 53.6569 53.6569C55.1571 52.1566 56 50.1217 56 48V16C56 13.8783 55.1571 11.8434 53.6569 10.3431C52.1566 8.84285 50.1217 8 48 8ZM16 13.3333H48C48.7072 13.3333 49.3855 13.6143 49.8856 14.1144C50.3857 14.6145 50.6667 15.2928 50.6667 16V38.2933L42.1333 31.0133C40.8112 29.9255 39.1522 29.3307 37.44 29.3307C35.7278 29.3307 34.0688 29.9255 32.7467 31.0133L13.3333 47.2V16C13.3333 15.2928 13.6143 14.6145 14.1144 14.1144C14.6145 13.6143 15.2928 13.3333 16 13.3333Z" fill="#6B5FFF"/>
<path d="M21.3334 26.6666C23.5425 26.6666 25.3334 24.8758 25.3334 22.6666C25.3334 20.4575 23.5425 18.6666 21.3334 18.6666C19.1242 18.6666 17.3334 20.4575 17.3334 22.6666C17.3334 24.8758 19.1242 26.6666 21.3334 26.6666Z" fill="#6B5FFF"/>
</svg>
