<svg width="64" height="64" viewBox="0 0 64 64" fill="none" xmlns="http://www.w3.org/2000/svg">
<path d="M51.2 18.6667H50.16C50.4796 17.8132 50.6509 16.9113 50.6667 16C50.6107 13.8309 49.6987 11.7721 48.1299 10.2732C46.561 8.77424 44.4627 7.95704 42.2933 8.00003C40.1614 8.04607 38.0811 8.66444 36.2702 9.79039C34.4593 10.9163 32.9844 12.5085 32 14.4C31.0156 12.5085 29.5407 10.9163 27.7298 9.79039C25.9189 8.66444 23.8386 8.04607 21.7067 8.00003C19.5373 7.95704 17.439 8.77424 15.8701 10.2732C14.3013 11.7721 13.3893 13.8309 13.3333 16C13.3491 16.9113 13.5205 17.8132 13.84 18.6667H12.8C12.0983 18.7333 11.4168 18.9384 10.7948 19.27C10.1728 19.6017 9.62274 20.0533 9.17639 20.5989C8.73004 21.1444 8.39625 21.773 8.19433 22.4484C7.99242 23.1237 7.92637 23.8323 8.00001 24.5334V34.1334C7.87544 35.4247 8.20743 36.7188 8.93824 37.7906C9.66905 38.8625 10.7525 39.6443 12 40V51.6534C12.0823 52.8629 12.6321 53.9929 13.533 54.8042C14.4339 55.6155 15.6151 56.0444 16.8267 56H47.1733C48.4023 56.0434 49.5988 55.6 50.5026 54.7661C51.4064 53.9322 51.9446 52.7752 52 51.5467V40C53.2476 39.6443 54.331 38.8625 55.0618 37.7906C55.7926 36.7188 56.1246 35.4247 56 34.1334V24.5334C56.0737 23.8323 56.0076 23.1237 55.8057 22.4484C55.6038 21.773 55.27 21.1444 54.8236 20.5989C54.3773 20.0533 53.8272 19.6017 53.2052 19.27C52.5833 18.9384 51.9017 18.7333 51.2 18.6667ZM50.6667 24.5334V34.1334C50.6987 34.3097 50.6987 34.4904 50.6667 34.6667H34.6667V24H50.6667C50.6987 24.1764 50.6987 24.357 50.6667 24.5334ZM42.2933 13.3334C43.0488 13.2893 43.7912 13.5444 44.3601 14.0434C44.929 14.5424 45.2786 15.2453 45.3333 16C45.2786 16.7548 44.929 17.4576 44.3601 17.9566C43.7912 18.4557 43.0488 18.7107 42.2933 18.6667H35.7333C36.1999 17.2421 37.0665 15.9818 38.2297 15.0361C39.3928 14.0904 40.8035 13.4994 42.2933 13.3334ZM18.6667 16C18.7215 15.2453 19.0711 14.5424 19.6399 14.0434C20.2088 13.5444 20.9512 13.2893 21.7067 13.3334C23.1918 13.5042 24.5967 14.0975 25.7547 15.0428C26.9128 15.9882 27.7753 17.2459 28.24 18.6667H21.7067C20.9512 18.7107 20.2088 18.4557 19.6399 17.9566C19.0711 17.4576 18.7215 16.7548 18.6667 16ZM13.3333 24.5334C13.3013 24.357 13.3013 24.1764 13.3333 24H29.3333V34.6667H13.3333C13.3013 34.4904 13.3013 34.3097 13.3333 34.1334V24.5334ZM17.3333 40H29.3333V50.6667H17.3333V40ZM34.6667 50.6667V40H46.6667V50.6667H34.6667Z" fill="#6B5FFF"/>
</svg>
