<svg width="254" height="44" viewBox="0 0 254 44" fill="none" xmlns="http://www.w3.org/2000/svg">
<path fill-rule="evenodd" clip-rule="evenodd" d="M91.5582 6.09955V0.0165794H48.1823L55.1384 6.09955H68.6967V43.2477H75.6133V6.09955H91.5582Z" fill="white"/>
<path fill-rule="evenodd" clip-rule="evenodd" d="M38.0332 19.9465C38.0332 22.3938 37.6115 24.6438 36.7661 26.6974C35.9226 28.7509 34.7734 30.5205 33.3203 32.006C31.8672 33.4915 30.1687 34.6497 28.2249 35.4796C26.282 36.3095 24.2107 36.7254 22.01 36.7254C19.8111 36.7254 17.7396 36.3095 15.7956 35.4796C13.8517 34.6497 12.1534 33.48 10.7001 31.9733C9.24752 30.4656 8.09886 28.6854 7.25413 26.6319C6.41017 24.5783 5.98747 22.3495 5.98747 19.9465V7.2391L0 0.0165042V20.7331C0 23.967 0.568105 26.992 1.70489 29.8099C2.84177 32.6289 4.85136 35.0858 6.81082 37.1837C8.77096 39.2806 11.0542 40.9413 13.6613 42.165C16.2678 43.3887 19.0609 44 22.0397 44C25.0187 44 27.8118 43.4098 30.4189 42.2305C33.0251 41.0501 35.2996 39.4231 37.2396 37.3474C39.1796 35.2726 41.18 32.8147 42.3168 29.9736C43.4526 27.1344 44.021 24.0536 44.021 20.7331V7.2391L38.0332 0.0165042V19.9465" fill="white"/>
<path fill-rule="evenodd" clip-rule="evenodd" d="M234.49 14.4861L222.092 43.307H214.98L234.49 0.0165777L254 43.307H246.888L234.49 14.4861Z" fill="white"/>
<path fill-rule="evenodd" clip-rule="evenodd" d="M196.66 43.4246V0.0162087L203.644 5.68558V43.4246H196.66Z" fill="white"/>
<path fill-rule="evenodd" clip-rule="evenodd" d="M118.947 37.5027C121.209 37.5027 123.352 37.0907 125.375 36.2667C127.398 35.4435 129.16 34.3253 130.661 32.9129C132.161 31.5012 133.347 29.8436 134.217 27.9414C135.086 26.0393 135.522 24.0097 135.522 21.8515C135.522 19.6947 135.086 17.6554 134.217 15.7323C133.347 13.8105 132.161 12.1331 130.661 10.7014C129.16 9.26975 127.398 8.14259 125.375 7.31858C123.352 6.49457 121.209 6.08324 118.947 6.08324C116.686 6.08324 114.554 6.49457 112.553 7.31858C110.552 8.14259 108.801 9.26975 107.3 10.7014C105.8 12.1331 104.614 13.8105 103.743 15.7323C102.874 17.6554 102.439 19.6947 102.439 21.8515C102.439 24.0097 102.874 26.0393 103.743 27.9414C104.614 29.8436 105.8 31.5012 107.3 32.9129C108.801 34.3253 110.552 35.4435 112.553 36.2667C114.554 37.0907 116.686 37.5027 118.947 37.5027ZM118.947 1.10082e-05C122.254 1.10082e-05 125.364 0.570261 128.279 1.71212C131.193 2.85398 133.727 4.40984 135.881 6.37838C138.034 8.34692 139.73 10.66 140.971 13.3177C142.21 15.9753 142.83 18.8199 142.83 21.8515C142.83 24.844 142.21 27.6591 140.971 30.2972C139.73 32.9352 138.034 35.2389 135.881 37.2071C133.727 39.176 131.193 40.7313 128.279 41.8732C125.364 43.015 122.254 43.5857 118.947 43.5857C115.642 43.5857 112.541 43.015 109.65 41.8732C106.756 40.7313 104.234 39.176 102.08 37.2071C99.9261 35.2389 98.2309 32.9352 96.9904 30.2972C95.7498 27.6591 95.1302 24.844 95.1302 21.8515C95.1302 18.8199 95.7498 15.9753 96.9904 13.3177C98.2309 10.66 99.9261 8.34692 102.08 6.37838C104.234 4.40984 106.756 2.85398 109.65 1.71212C112.541 0.570261 115.642 1.10082e-05 118.947 1.10082e-05Z" fill="white"/>
<path fill-rule="evenodd" clip-rule="evenodd" d="M167.88 25.0571C169.315 25.0571 170.632 24.7815 171.828 24.2302C173.024 23.6788 174.068 22.9504 174.959 22.045C175.85 21.1394 176.546 20.1057 177.048 18.9445C177.547 17.7834 177.798 16.5726 177.798 15.3121C177.798 14.0523 177.547 12.8416 177.048 11.6804C176.546 10.5186 175.85 9.48485 174.959 8.57928C174.068 7.6737 173.024 6.94542 171.828 6.3941C170.632 5.84278 169.315 5.56783 167.88 5.56783H164.947H159.43H158.156L152.381 0.0161379H167.032C170.946 0.0161379 174.382 0.862346 177.341 2.55557C179.037 3.53965 180.485 4.74092 181.679 6.1584C182.877 7.57589 183.779 9.16985 184.388 10.9424C184.563 11.3751 184.671 11.7494 184.714 12.0642C184.714 12.1821 184.736 12.2606 184.78 12.3007C184.823 12.5364 184.857 12.7727 184.877 13.009C184.899 13.2455 184.931 13.4617 184.976 13.659V13.7767C185.019 14.013 185.052 14.2495 185.074 14.4859C185.095 14.7216 185.106 14.978 185.106 15.2536V15.3121V15.3713C185.106 15.6471 185.095 15.9027 185.074 16.139C185.052 16.3754 185.019 16.6118 184.976 16.8482V16.9067L184.78 18.3242C184.736 18.3636 184.714 18.4421 184.714 18.5607C184.671 18.7578 184.628 18.9349 184.583 19.0919C184.54 19.2499 184.475 19.4269 184.388 19.6239C183.779 21.4351 182.877 23.049 181.679 24.4665C180.485 25.8841 179.037 27.0844 177.341 28.0693C175.906 28.8563 174.317 29.4764 172.578 29.9293C170.838 30.3828 168.989 30.6088 167.032 30.6088H159.363V43.4245H152.381V25.0571H159.43H164.947H167.88" fill="white"/>
</svg>
