<svg width="64" height="65" viewBox="0 0 24 24" fill="none" xmlns="http://www.w3.org/2000/svg">
<path d="M17.7447 16.671L2.11492 23.4718C1.09609 23.8773 0.0835927 22.8735 0.480202 21.8513L7.31031 5.97546" fill="#FFB636"/>
<path d="M0.480092 21.8513L1.0229 20.5896C1.06945 20.5187 1.11586 20.4476 1.16245 20.3767C3.86231 16.2637 6.60173 12.1758 9.43472 8.1532L12.6112 11.4091C10.2145 13.0545 2.43229 21.0967 0.802217 23.2299C0.447373 22.9035 0.27492 22.3802 0.480092 21.8513V21.8513Z" fill="#FFD469"/>
<path d="M14.2675 9.58279C17.1669 12.4822 18.7528 15.5972 17.8096 16.5404C16.8664 17.4836 13.7514 15.8978 10.8519 12.9984C7.95249 10.099 6.36671 6.98395 7.30988 6.04073C8.25305 5.09751 11.3681 6.68334 14.2675 9.58279V9.58279Z" fill="#A06C33"/>
<path d="M7.29391 15.355C7.29391 15.6368 7.06544 15.8652 6.78367 15.8652C6.50191 15.8652 6.27344 15.6368 6.27344 15.355C6.27344 15.0731 6.50186 14.8447 6.78367 14.8447C7.06548 14.8447 7.29391 15.0731 7.29391 15.355Z" fill="#F7F9AA"/>
<path d="M23.5306 9.99193C23.5306 10.3964 23.2028 10.7242 22.7983 10.7242C22.3939 10.7242 22.0661 10.3964 22.0661 9.99193C22.0661 9.58749 22.3939 9.25964 22.7983 9.25964C23.2028 9.25964 23.5306 9.58749 23.5306 9.99193V9.99193ZM18.6405 19.743C18.236 19.743 17.9082 20.0708 17.9082 20.4752C17.9082 20.8797 18.236 21.2075 18.6405 21.2075C19.0449 21.2075 19.3728 20.8797 19.3728 20.4752C19.3728 20.0708 19.0449 19.743 18.6405 19.743Z" fill="#FFB636"/>
<path d="M16.6854 3.72765C16.6226 4.15257 16.348 4.5279 15.9321 4.7574C15.645 4.91583 15.3073 4.99819 14.9568 4.99819C14.8451 4.99814 14.7336 4.9899 14.6232 4.97354C14.3753 4.93688 14.1272 4.97429 13.9425 5.07615C13.8598 5.1218 13.7175 5.22169 13.6944 5.37793C13.6714 5.53416 13.7786 5.67094 13.8446 5.73858C13.9879 5.88554 14.2067 5.99082 14.4469 6.03015C14.4535 6.03085 14.46 6.03109 14.4666 6.03207C15.48 6.18188 16.2039 6.98457 16.0801 7.82143C16.0173 8.2464 15.7428 8.62173 15.3268 8.85123C15.0397 9.00966 14.702 9.09202 14.3515 9.09202C14.2399 9.09197 14.1284 9.08373 14.0179 9.06737C13.7701 9.03066 13.5219 9.06807 13.3372 9.16998C13.2545 9.21563 13.1122 9.31552 13.0891 9.47176C13.0521 9.72249 13.36 10.0535 13.8612 10.1276C14.1338 10.1679 14.3222 10.4216 14.2819 10.6944C14.2453 10.9423 14.0322 11.1205 13.7888 11.1205C13.7645 11.1205 13.7399 11.1188 13.7151 11.1151C12.7018 10.9653 11.978 10.1626 12.1017 9.32574C12.1645 8.90077 12.439 8.52544 12.855 8.29594C13.2326 8.08763 13.6974 8.01085 14.1639 8.0798C14.4118 8.11641 14.6599 8.07905 14.8446 7.97719C14.9273 7.93154 15.0696 7.83165 15.0927 7.67541C15.1291 7.42876 14.8312 7.1049 14.3444 7.02394C14.3364 7.02315 14.3284 7.02249 14.3204 7.02132C13.8539 6.95232 13.4311 6.74438 13.13 6.43571C12.7983 6.09568 12.6441 5.65693 12.7069 5.23191C12.7697 4.80699 13.0443 4.43166 13.4602 4.20216C13.8378 3.99385 14.3026 3.91707 14.7691 3.98602C15.0169 4.02259 15.2651 3.98527 15.4498 3.88341C15.5325 3.83776 15.6748 3.73787 15.6979 3.58163C15.7209 3.4254 15.6137 3.28862 15.5477 3.22098C15.4004 3.07004 15.1738 2.96241 14.9258 2.9258C14.6532 2.88549 14.4648 2.63176 14.5051 2.35904C14.5454 2.08632 14.7992 1.89816 15.0719 1.93824C15.5383 2.00724 15.9611 2.21518 16.2622 2.52385C16.594 2.86393 16.7483 3.30268 16.6854 3.72765V3.72765Z" fill="#BEA4FF"/>
<path d="M3.83104 7.48547C3.83104 7.94376 3.45951 8.3153 3.00121 8.3153C2.54292 8.3153 2.17139 7.94376 2.17139 7.48547C2.17139 7.02717 2.54292 6.65564 3.00121 6.65564C3.45951 6.65564 3.83104 7.02712 3.83104 7.48547ZM18.6644 6.52673C18.1349 6.52673 17.7057 6.95597 17.7057 7.48542C17.7057 8.01487 18.1349 8.44411 18.6644 8.44411C19.1939 8.44411 19.6231 8.01487 19.6231 7.48542C19.6231 6.95597 19.1939 6.52673 18.6644 6.52673ZM10.1028 18.5578C9.57332 18.5578 9.14414 18.987 9.14414 19.5165C9.14414 20.046 9.57337 20.4752 10.1028 20.4752C10.6323 20.4752 11.0615 20.046 11.0615 19.5165C11.0615 18.987 10.6323 18.5578 10.1028 18.5578ZM22.8202 14.1682C22.9651 13.8874 22.8551 13.5423 22.5743 13.3973C22.4624 13.3395 22.3288 13.2629 22.1741 13.1741C20.8151 12.3945 17.9873 10.7722 14.6576 13.4605C14.4118 13.659 14.3734 14.0192 14.5719 14.265C14.7703 14.5109 15.1305 14.5493 15.3764 14.3507C18.0968 12.1544 20.2927 13.4139 21.6047 14.1666C21.7642 14.2581 21.9149 14.3445 22.0492 14.4139C22.116 14.4484 22.1889 14.4694 22.2638 14.4757C22.3386 14.482 22.414 14.4735 22.4856 14.4507C22.5572 14.4279 22.6236 14.3912 22.681 14.3427C22.7384 14.2942 22.7857 14.2349 22.8202 14.1682V14.1682Z" fill="#FF6E83"/>
<path d="M20.3828 2.94262C20.3828 3.22443 20.1543 3.45286 19.8725 3.45286C19.5907 3.45286 19.3623 3.22443 19.3623 2.94262C19.3623 2.66081 19.5907 2.43239 19.8725 2.43239C20.1544 2.43234 20.3828 2.66081 20.3828 2.94262ZM2.17137 0.557527C1.88955 0.557527 1.66113 0.785949 1.66113 1.06776C1.66113 1.34957 1.88955 1.578 2.17137 1.578C2.45318 1.578 2.68165 1.34957 2.68165 1.06776C2.68165 0.785949 2.45318 0.557527 2.17137 0.557527ZM10.172 7.21645C10.2297 7.10329 10.3009 6.97443 10.3762 6.83803C10.7584 6.14564 11.2819 5.19745 11.3134 4.09307C11.3512 2.76632 10.6602 1.56173 9.25966 0.512761C9.01652 0.330652 8.6719 0.380199 8.48993 0.623246C8.30787 0.866339 8.35732 1.21096 8.60041 1.39298C9.7137 2.22679 10.2415 3.09975 10.2141 4.06171C10.1902 4.89946 9.75954 5.67965 9.41346 6.30651C9.33373 6.45103 9.25835 6.58748 9.19254 6.71653C9.05449 6.98704 9.16188 7.31821 9.43235 7.45626C9.50957 7.49583 9.5951 7.51648 9.68187 7.5165C9.7833 7.51656 9.88277 7.48857 9.96928 7.43561C10.0558 7.38266 10.126 7.30681 10.172 7.21645V7.21645Z" fill="#59CAFC"/>
</svg>
