<svg width="64" height="65" viewBox="0 0 24 24" fill="none" xmlns="http://www.w3.org/2000/svg">
<path d="M6.13873 11.2125C6.05998 11.1337 1.26561 10.0781 1.26561 10.0781C1.26561 10.0781 0.98623 10.5262 1.06686 10.7906C1.11186 10.9387 2.15811 12.1556 3.23436 13.275C4.08373 14.16 5.04935 15.06 5.18998 15.5737C5.4056 16.365 5.4281 17.6344 5.4281 17.6344L2.30248 19.5431C2.30248 19.5431 2.68498 21.4894 5.16373 21.4125C7.47935 21.3412 7.59936 18.8887 8.33436 18.8756C8.45811 18.8737 8.62873 18.8306 8.93436 19.1588C9.69186 19.9725 11.1094 21.5438 11.5837 22.02C12.2175 22.6538 12.6675 23.2875 12.9056 23.2612C13.1437 23.235 15.1519 21.4387 15.7331 20.8837C16.3144 20.3287 16.8431 19.6688 16.8431 19.1138C16.8431 18.5588 16.0237 18.1369 16.0237 18.1369L11.505 18.6656L6.13873 11.2125Z" fill="#B0B0AF"/>
<path d="M19.4287 4.05375C19.5074 4.05375 21.5155 3.05063 21.5155 3.05063C21.5155 3.05063 22.5468 5.1375 21.2249 6.32625C19.903 7.515 19.6124 6.84188 18.9787 7.54125C18.4949 8.07563 18.7405 9.18 18.7405 9.18L22.6687 12.9563C22.6687 12.9563 22.888 13.3556 22.7305 13.6463C22.618 13.8525 21.2962 15.3319 20.2724 16.395C19.8112 16.8731 19.168 17.0344 18.8193 16.95C17.9474 16.7381 17.8162 16.0519 17.6568 14.8369C17.4974 13.6219 16.4512 13.6406 16.0705 13.7006C15.268 13.8281 14.7449 14.2969 14.7449 14.2969C14.7449 14.2969 10.0199 8.6025 10.0724 8.44313C10.1249 8.28375 10.3105 7.095 9.75554 6.59438C9.20054 6.09188 8.09241 5.83688 7.66866 5.54625C7.24679 5.25563 7.19054 4.7025 7.26741 4.16625C7.34429 3.63 10.7605 3.63563 10.7605 3.63563C10.7605 3.63563 16.6518 6.885 16.6799 6.75375C16.7062 6.615 19.4287 4.05375 19.4287 4.05375V4.05375Z" fill="#B0B0AF"/>
<path d="M16.5225 4.68562C16.665 4.16437 16.5019 2.88374 17.4975 2.03624C18.4931 1.18874 20.0419 1.29374 20.9738 2.18437C21.9056 3.07499 22.0556 4.74937 20.9531 5.85187C19.8506 6.95437 19.3425 6.33937 18.7275 6.93374C18.1125 7.52812 18.2194 8.01562 18.6 8.37562C18.9825 8.73562 22.7775 12.7012 22.6706 12.9544C22.5638 13.2075 19.9781 16.1344 19.5544 16.3462C19.1306 16.5581 18.3881 16.5375 18.24 15.8381C18.0919 15.1387 18.3469 13.74 17.2856 13.3781C16.2263 13.0181 15.7594 13.3144 14.7206 14.4169C13.6819 15.5194 13.215 16.7269 14.0625 17.3419C14.91 17.9569 15.9713 17.7019 16.395 18.4237C16.8188 19.1456 16.1831 19.8019 15.06 20.8406C13.9369 21.8794 13.0669 22.7269 12.9188 22.6219C12.7706 22.515 9.54751 19.1025 9.23064 18.7425C8.91189 18.3825 8.29689 18.0637 7.70439 18.615C7.11001 19.1662 7.00501 20.9681 4.50376 20.9681C2.00251 20.9681 1.70251 18.255 2.59314 17.1319C3.48376 16.0087 5.45439 15.9019 5.49751 15.1387C5.51626 14.7881 4.43439 13.8431 3.46314 12.8287C2.32126 11.6344 1.26001 10.3687 1.21501 10.2206C1.13064 9.94499 3.58876 7.52812 4.05564 7.18874C4.52251 6.84937 5.05126 7.06124 5.30626 7.33687C5.56126 7.61249 5.62501 8.45999 5.83689 8.94749C6.04876 9.43499 7.04439 11.5556 9.44064 9.13874C11.8144 6.74249 9.56814 5.70374 8.80501 5.49187C8.04189 5.27999 7.49251 5.21062 7.27876 4.43249C7.11001 3.81749 8.04189 3.09749 9.01689 2.16374C9.99189 1.22999 10.5638 0.742493 10.8188 0.742493C11.0738 0.742493 14.4863 4.40999 14.9325 4.83374C15.3788 5.25749 15.6525 5.36437 15.9713 5.27812C16.2881 5.19562 16.4588 4.91999 16.5225 4.68562V4.68562Z" fill="url(#paint0_radial_643:840)"/>
<defs>
<radialGradient id="paint0_radial_643:840" cx="0" cy="0" r="1" gradientUnits="userSpaceOnUse" gradientTransform="translate(11.6573 -5.30626) scale(22.3547)">
<stop offset="0.508" stop-color="#B7D118"/>
<stop offset="0.572" stop-color="#B2D019"/>
<stop offset="0.643" stop-color="#A5CD1D"/>
<stop offset="0.717" stop-color="#8FC922"/>
<stop offset="0.793" stop-color="#70C22A"/>
<stop offset="0.871" stop-color="#48BA34"/>
<stop offset="0.949" stop-color="#18B040"/>
<stop offset="0.981" stop-color="#02AB46"/>
</radialGradient>
</defs>
</svg>
