<svg width="64" height="65" viewBox="0 0 36 36" fill="none" xmlns="http://www.w3.org/2000/svg">
<path d="M26.093 4.61202C25.595 5.11002 25.464 5.45102 25.365 5.64102C24.705 6.90702 23.91 7.31702 22.585 5.99202C22.455 5.86202 18.498 1.72502 17.844 0.975019C17.417 0.485019 16.763 0.335019 16.26 0.713019C15.88 0.999019 12.225 3.98602 11.225 5.22002C10.451 6.17502 10.425 7.35402 11.146 8.07602C11.472 8.40202 11.873 8.52502 12.297 8.65402C12.849 8.82302 14.06 8.72202 14.767 9.42902C15.9 10.562 15.307 12.353 13.85 13.85C12.353 15.307 10.562 15.9 9.42897 14.767C8.72097 14.059 8.82297 12.849 8.65397 12.297C8.52497 11.873 8.40197 11.473 8.07597 11.146C7.35497 10.425 6.17597 10.452 5.21997 11.225C3.98497 12.225 0.998968 15.88 0.712968 16.26C0.333968 16.763 0.484968 17.416 0.974968 17.844C1.72497 18.498 5.86197 22.455 5.99197 22.585C7.31597 23.909 6.90697 24.705 5.64097 25.365C5.45097 25.464 5.11097 25.594 4.61197 26.093C3.14997 27.555 3.14997 29.926 4.61197 31.388C6.07397 32.85 8.44497 32.85 9.90697 31.388C10.405 30.89 10.536 30.549 10.635 30.359C11.295 29.093 12.09 28.683 13.415 30.008C13.545 30.138 17.502 34.275 18.156 35.025C18.583 35.515 19.237 35.665 19.74 35.287C20.12 35.001 23.775 32.014 24.775 30.78C25.549 29.825 25.575 28.646 24.854 27.924C24.528 27.598 24.127 27.475 23.703 27.346C23.151 27.177 21.94 27.278 21.233 26.571C20.1 25.438 20.693 23.647 22.15 22.15C23.647 20.693 25.438 20.1 26.571 21.233C27.279 21.941 27.177 23.151 27.346 23.703C27.475 24.127 27.598 24.527 27.924 24.854C28.645 25.575 29.824 25.548 30.78 24.775C32.015 23.775 35.001 20.12 35.287 19.74C35.666 19.237 35.515 18.584 35.025 18.156C34.275 17.502 30.138 13.545 30.008 13.415C28.684 12.091 29.093 11.295 30.359 10.635C30.549 10.536 30.889 10.406 31.388 9.90702C32.85 8.44502 32.85 6.07402 31.388 4.61202C29.926 3.14902 27.555 3.14902 26.093 4.61202V4.61202Z" fill="#78B159"/>
</svg>
